<?xml version="1.0" standalone="no"?>
<!DOCTYPE svg PUBLIC "-//W3C//DTD SVG 1.1//EN" "http://www.w3.org/Graphics/SVG/1.1/DTD/svg11.dtd">
<svg xmlns="http://www.w3.org/2000/svg">
<metadata>Copyright (C) 2017 by original authors @ fontello.com</metadata>
<defs>
<font id="custom-icons" horiz-adv-x="1000" >
<font-face font-family="custom-icons" font-weight="400" font-stretch="normal" units-per-em="1000" ascent="850" descent="-150" />
<missing-glyph horiz-adv-x="1000" />
<glyph glyph-name="arrow-down" unicode="&#xe800;" d="M979 610c28-33 28-61 0-95l-432-430c-9-15-28-20-46-20-19 0-34 5-48 20l-431 430c-29 28-29 62 0 95 28 33 61 33 90 0l383-379 384 379c43 28 71 28 100 0z" horiz-adv-x="1000" />

<glyph glyph-name="arrow-next" unicode="&#xe801;" d="M770 850c-43 0-66-19-66-65v-384l-421 421c-29 28-60 28-94 0-32-28-32-61 0-88l375-379-375-380c-32-27-32-60 0-88 34-28 61-28 94 0l421 421v-392c0-42 23-66 66-66 40 0 65 24 65 66v869c0 42-19 61-65 65z" horiz-adv-x="1000" />

<glyph glyph-name="arrow-right" unicode="&#xe802;" d="M240 829c33 28 62 28 95 0l431-431c15-10 19-29 19-48 0-19-4-33-19-48l-431-431c-29-28-62-28-95 0-33 28-33 62 0 90l379 384-379 384c-33 38-33 71 0 100z" horiz-adv-x="1000" />

<glyph glyph-name="check" unicode="&#xe803;" d="M965 700c-41 42-80 46-112 13l-525-524-180 180c-33 38-71 29-114-12-40-42-45-80-12-114l255-256c18-17 35-25 55-21 17 0 39 4 51 26l596 595c32 30 28 71-14 113z" horiz-adv-x="1000" />

<glyph glyph-name="close" unicode="&#xe804;" d="M805 826c6 0 6 6 0 0l0 0 0 0z m163-774l-292 293 0 0-11 10 11 11 0 0 292 292c48 44 38 93-17 147-53 54-102 59-140 16l0 0-309-309-308 309c-44 43-93 38-146-16-56-54-66-103-16-147l307-308-307-309c-50-43-40-93 15-145 54-55 103-60 147-17l308 309 309-309 0 0c43-38 93-33 140 17 60 64 65 112 17 156z m-157-163l0 0 0 0 0 0z" horiz-adv-x="1000" />

<glyph glyph-name="d2c-addopen" unicode="&#xe805;" d="M664 327h-141v-141h-46v141h-141v46h141v141h46v-141h141z" horiz-adv-x="1000" />

<glyph glyph-name="d2c-arrowdown" unicode="&#xe806;" d="M750 350l-44 44-175-174v380h-62v-380l-175 174-44-44 250-250z" horiz-adv-x="1000" />

<glyph glyph-name="d2c-checksmall" unicode="&#xe807;" d="M688 440a28 28 0 0 0-7-17l-188-188-35-35a23 23 0 0 0-17-7 28 28 0 0 0-18 7l-35 36-94 94a26 26 0 0 0 0 35l36 35a23 23 0 0 0 18 7 28 28 0 0 0 17-7l76-76 169 169a19 19 0 0 0 18 7 26 26 0 0 0 17-7l35-35a26 26 0 0 0 8-18z" horiz-adv-x="1000" />

<glyph glyph-name="d2c-chevrondown" unicode="&#xe808;" d="M357 457l-44-44 187-188 188 188-45 44-143-144z" horiz-adv-x="1000" />

<glyph glyph-name="d2c-chevronleft" unicode="&#xe809;" d="M607 493l-44 45-188-188 188-187 44 44-144 143z" horiz-adv-x="1000" />

<glyph glyph-name="d2c-chevronright" unicode="&#xe80a;" d="M438 538l-45-45 144-143-144-143 45-44 187 187z" horiz-adv-x="1000" />

<glyph glyph-name="d2c-chevronup" unicode="&#xe80b;" d="M643 243l45 45-188 187-187-187 44-45 143 144z" horiz-adv-x="1000" />

<glyph glyph-name="d2c-close" unicode="&#xe80c;" d="M719 525l-44 44-175-175-175 175-44-44 175-175-175-175 44-44 175 175 175-175 44 44-175 175z" horiz-adv-x="1000" />

<glyph glyph-name="d2c-error" unicode="&#xe80d;" d="M242 139h516l-258 445z m281 70h-46v47h46z m0 94h-46v94h46z" horiz-adv-x="1000" />

<glyph glyph-name="d2c-fastshipping" unicode="&#xe80e;" d="M469 440a31 31 0 0 1 0 60h-331a31 31 0 0 1 0-60z m-422-90a31 31 0 0 1 31-31h331a31 31 0 0 1 0 60h-332a31 31 0 0 1-30-29z m529-271a80 80 0 0 1 68-31 136 136 0 0 1 121 91h96a56 56 0 0 1 61 60v120a31 31 0 0 1-17 27l-53 27-87 115a31 31 0 0 1-24 12h-45q7 25 9 36a68 68 0 0 1-6 64 58 58 0 0 1-48 20h-393a31 31 0 1 1 0-61h391a53 53 0 0 1 0-9c-9-33-55-218-56-224a31 31 0 0 1 31-38h153a44 44 0 0 1 13 3l47 24 29-15v-102h-94a100 100 0 0 1-14 28 80 80 0 0 1-67 32 132 132 0 0 1-106-61h-179a100 100 0 0 1-13 29 80 80 0 0 1-68 31 132 132 0 0 1-106-58h-81a31 31 0 1 1 0-61h60a90 90 0 0 1 16-58 80 80 0 0 1 68-32 136 136 0 0 1 121 91h156a90 90 0 0 1 17-60z m188 270h-105c6 24 14 59 23 91h45l61-80z m-418-187a74 74 0 0 0-65-54 25 25 0 0 0-19 8 35 35 0 0 0-4 28 74 74 0 0 0 65 53 25 25 0 0 0 20-7 35 35 0 0 0 4-29z m275-15a74 74 0 0 0 67 52 25 25 0 0 0 19-8 35 35 0 0 0 3-28 74 74 0 0 0-65-53 25 25 0 0 0-19 7 35 35 0 0 0-4 29z" horiz-adv-x="1000" />

<glyph glyph-name="d2c-freeshipping" unicode="&#xe80f;" d="M872 558l-372 167-372-167v-418l372-165 372 165z m-81-15l-102-44-290 129 101 44z m-291-130l-292 130 134 60 292-128z m-325 93l302-133v-335l-302 132z m348-468v336l302 134v-336z m71 87l187 83v182l-187-82z m46 152l94 42v-80l-94-42z" horiz-adv-x="1000" />

<glyph glyph-name="d2c-mail" unicode="&#xe810;" d="M791 628h-579a83 83 0 0 1-83-82s0 0 0 0v-395a82 82 0 0 1 82-82h578a82 82 0 0 1 83 82v394a81 81 0 0 1-79 84z m22-477a22 22 0 0 0-22-23h-579a22 22 0 0 0-21 23v394a22 22 0 0 0 22 24h579a22 22 0 0 0 22-22s0 0 0 0z m-46 346a31 31 0 0 1-42 7h0l-225-166-223 166a31 31 0 1 1-41-45l5-4 127-93-130-104a31 31 0 0 1-4-41h0a31 31 0 0 1 24-12 28 28 0 0 1 19 8l139 114 65-48a31 31 0 0 1 20-8 37 37 0 0 1 19 6l65 49 139-115a31 31 0 0 1 19-7 31 31 0 0 1 23 11 31 31 0 0 1-3 41h0l-130 104 128 93a31 31 0 0 1 7 42z" horiz-adv-x="1000" />

<glyph glyph-name="d2c-menu" unicode="&#xe811;" d="M219 163h562v62h-562z m0 156h562v62h-562z m0 219v-63h562v63z" horiz-adv-x="1000" />

<glyph glyph-name="d2c-minimize" unicode="&#xe812;" d="M664 295h-328v47h328z" horiz-adv-x="1000" />

<glyph glyph-name="d2c-search" unicode="&#xe813;" d="M609 288h-24l-9 8a203 203 0 1 1-22-22l9-9v-24l156-157 46 47z m-187 0a141 141 0 1 0 141 140 140 140 0 0 0-141-140z" horiz-adv-x="1000" />

<glyph glyph-name="d2c-star" unicode="&#xe814;" d="M500 247l116-84-44 136 116 82h-143l-45 141-45-141h-142l115-82-44-136z" horiz-adv-x="1000" />

<glyph glyph-name="d2c-tooltip" unicode="&#xe815;" d="M500 663a313 313 0 1 1 313-313 313 313 0 0 1-313 313z m31-469h-62v187h62z m0 250h-62v62h62z" horiz-adv-x="1000" />

<glyph glyph-name="d2c-zoomin" unicode="&#xe816;" d="M771 122l-164 164a211 211 0 1 1-44-45l164-164 0 0a34 34 0 0 1 23-8 31 31 0 0 1 22 53z m-183 291a154 154 0 1 0-153 156h0a154 154 0 0 0 153-156z m-74 31h-49v51a31 31 0 0 1-63 0h0v-51h-50a31 31 0 0 1 0-63h50v-49a31 31 0 1 1 62 0h0v51h50a31 31 0 1 1 0 63h0z" horiz-adv-x="1000" />

<glyph glyph-name="d2c-zoomout" unicode="&#xe817;" d="M772 121l-165 165a213 213 0 1 1-44-45l165-165 0 0a34 34 0 0 1 22-7 31 31 0 0 1 22 53z m-184 294a155 155 0 1 0-154 154h0a156 156 0 0 0 154-154z m-74 31h-162a31 31 0 0 1 0-62h162a31 31 0 0 1 0 62z" horiz-adv-x="1000" />

<glyph glyph-name="facebook" unicode="&#xe818;" d="M500 850c-277 0-500-225-500-500 0-277 225-500 500-500 275 0 500 225 500 500 0 275-225 500-500 500z m153-297c0-5-2-7-8-7-23 0-44 0-68 0-19 0-32-12-32-32s0-40 0-59c0-6 1-6 5-6 33 0 63 0 95 0 6 0 8-2 6-5-4-33-7-65-13-96 0-3-3-3-5-3-18 0-38 0-56 0-9 0-18 0-27 0-5 0-7-2-7-8 0-48 0-98 0-149s0-98 0-149c0-5-2-7-7-7-43 0-85 0-128 0-5 0-7 2-7 7 0 99 0 198 0 297 0 5-2 7-7 7-18 0-38 0-56 0-3 0-5 2-5 5 0 31 0 63 0 94 0 5 2 5 5 5 18 0 38 0 56 0 5 0 7 2 7 8 0 26 0 55 0 82 0 24 5 47 20 67 14 21 36 34 59 41 18 6 36 9 56 9 36 0 72 0 108 0 5 0 5-2 5-7 2-29 2-61 4-94z" horiz-adv-x="1000" />

<glyph glyph-name="logo" unicode="&#xe819;" d="M523 621h-13-35c-80-8-144-74-144-157 0-79 64-148 144-156h35c39 0 72-31 72-72 0-39-30-73-72-73h-20c-165 0-301 134-301 301 0 165 134 301 301 301h13c108 0 213-44 290-121 8-7 18-12 31-12 23 0 44 18 44 43 0 13-5 23-13 31-95 93-219 144-350 144h-15c-213 0-386-172-386-386s173-385 386-385h23c87 0 157 69 157 157 0 80-64 149-144 156h-36c-39 0-72 31-72 72 0 39 31 72 72 72h23c164 0 301-133 301-300 0-165-134-301-301-301h-10c-103 0-201 38-278 108-8 8-18 13-31 13-23 0-43-18-43-44 0-10 5-23 12-31 93-85 214-131 337-131h10c214 0 386 172 386 386 2 210-162 380-373 385z" horiz-adv-x="1000" />

<glyph glyph-name="logo-filled" unicode="&#xe81a;" d="M500 850c-276 0-500-223-500-500 0-277 224-500 500-500 277 0 500 223 500 500 0 277-223 500-500 500z m8-802h-6c-75 0-149 28-205 81-5 5-8 13-8 18 0 15 13 25 26 25 8 0 13-2 18-7 45-43 106-66 167-66h5c102 0 183 81 183 182 0 102-81 183-183 183h-12c-23 0-43-20-43-43 0-23 20-43 43-43h20c48-5 89-46 89-94 0-53-43-94-94-94h-13c-129 0-233 104-233 234 0 129 104 233 233 233h8c78 0 155-30 213-89 5-5 8-12 8-17 0-16-13-26-26-26-8 0-12 3-17 8-49 45-110 73-176 73h-7c-99 0-183-81-183-182 0-99 81-183 183-183h12c23 0 44 20 44 43 0 23-21 43-44 43h-20c-48 5-89 46-89 94 0 48 38 92 87 94h22 8c127-5 226-106 226-234-3-129-107-233-236-233z" horiz-adv-x="1000" />

<glyph glyph-name="mail" unicode="&#xe81b;" d="M901 749h-802c-54 0-99-44-99-99v-600c0-54 45-99 99-99h802c54 0 99 45 99 99v600c3 55-42 99-99 99z m0-702h-802v501l399-249 400 249v-501h3z m-399 351l-400 249h802l-402-249z" horiz-adv-x="1000" />

<glyph glyph-name="phone" unicode="&#xe81c;" d="M202 421c82-156 209-283 365-365l121 120c14 15 36 22 57 15 64-21 127-32 198-32 32 0 57-25 57-57v-195c0-32-25-57-57-57-521 0-943 422-943 943 0 32 25 57 57 57h195c32 0 56-25 56-57 0-70 11-134 32-198 8-18 0-43-14-57l-124-117z" horiz-adv-x="1000" />

<glyph glyph-name="pinterest" unicode="&#xe81d;" d="M392 161c-2-16 0-32 0-48 0 16-2 32 0 48z m2 27c0-4 2-7-2-11 4 4 4 7 2 11z m0 6c2 0 2 0 0 0 2 0 2 0 0 0z m2 0l0 0 0 0z m104 656c-277 0-500-225-500-500 0-277 225-500 500-500 276 0 500 225 500 500 2 275-223 500-500 500z m24-620c1 0 5 1 7-2-4-2-6-2-7 2z m12-4c6 0 13 0 18 0-4-2-14-2-18 0z m25 2c4 3 6 2 9 2-1-6-5-4-9-2z m15 2c1 3 3 1 7 1-4-1-6-1-7-1z m122 190c0-12-1-25-4-37-3-19-7-37-14-53-13-30-30-57-56-77-12-9-25-17-39-22h-2c-2 0-6 2-7-1-2 0-2 0-4 0-3 0-7 1-9-2-2 0-3 0-7 0-6 0-13 0-18 0-2 0-4 0-5 0-2 3-4 2-7 2-17 3-29 10-40 21-4 4-5 7-9 11-2-4-2-7-4-13-2-10-5-21-7-32-2-11-5-21-7-33-4-14-7-27-15-41-8-20-17-38-30-53-2-4-5-8-7-12-4-3-6-3-9 0 3-3 5-2 9 0 0-3-2-5-6-5-1 0-5 2-3 5 0 2 0 4 0 6l0 0c-4 4-2 9-2 14 2-3 2-5 2-8 0 3 0 5-2 8 0 2 0 5 0 7-2 2-2 6-2 8 0 17 0 34 0 52 0 2 0 4 2 5 0 2 0 6 0 7 0 4-2 7 2 11 0 2 0 2 0 4-2 4 0 5 2 7v2c0 3 0 5 1 7 0-2 0-4 0-4 0 2 0 4 0 4v2c0 3 0 5 2 7v-2 2c0 2 0 2 0 4l0 0c0 3 0 5 2 7l0 0c2 8 4 18 5 27 2 7 4 14 6 23 2 13 5 25 7 38 2 13 5 25 7 38 0 2 2 3 2 3 0 4 0 7-2 11-5 20-9 41-5 63 2 14 5 27 14 38 11 16 27 27 47 23 14-2 25-13 29-27 3-14 3-27 0-41-4-18-9-35-15-52-1-9-5-20-7-29-2-6-2-13-4-18 0-7 0-15 4-22 6-10 15-20 25-23 9-4 20-4 31-2 14 4 25 11 34 20 13 12 20 27 27 43 7 16 11 35 14 52 4 22 6 43 4 67-2 21-9 41-24 59-10 13-23 23-39 31-11 5-23 7-34 9-13 2-25 2-38 0-14-2-27-6-41-11-18-7-33-18-45-32-13-15-22-29-29-47-3-13-7-24-9-36-2-9-2-20-2-29 0-21 8-41 22-58 3-3 3-7 3-12-1-9-3-18-7-27-2-7-9-11-14-7-22 10-36 27-45 46-13 30-16 60-13 90 4 31 15 60 33 87 12 19 29 37 48 50 16 11 33 20 51 25 30 11 61 15 93 11 18-2 36-5 54-13 22-9 41-21 59-39 11-11 22-23 29-40 5-10 11-23 15-34 2-7 3-16 5-25 0-7 0-23-2-38z" horiz-adv-x="1000" />

<glyph glyph-name="profile" unicode="&#xe81e;" d="M500 850c-274 0-500-223-500-500 0-277 223-500 500-500 274 0 500 223 500 500 0 277-223 500-500 500z m0-149c83 0 150-67 150-150 0-83-67-150-150-150-83 0-150 67-150 150 0 83 67 150 150 150z m0-707c-124 0-236 63-300 159 0 98 201 153 300 153s296-55 299-153c-63-96-175-159-299-159z" horiz-adv-x="1000" />

<glyph glyph-name="search" unicode="&#xe81f;" d="M1000 446c0-113-41-206-120-284-78-79-174-120-284-120-96 0-178 30-253 89l-267-267c-7-11-18-14-31-14s-24 3-31 14c-7 7-14 17-14 30s4 25 14 31l267 268c-58 75-89 160-89 253 0 113 41 205 120 284 79 79 175 120 284 120 113 0 206-41 284-120 83-75 120-171 120-284z m-61 0c0 96-35 175-100 243-65 65-147 100-243 100-96 0-175-35-243-100-65-65-99-147-99-243 0-96 34-175 99-243 65-65 147-100 243-100 96 0 175 35 243 100 69 68 100 150 100 243z" horiz-adv-x="1000" />

<glyph glyph-name="thin-arrow-left" unicode="&#xe821;" d="M340 350l344 478c5 7 5 14-1 19-7 5-13 4-19-4l-348-484c-1-1-2-3-3-4-1-2-1-3-1-5s0-3 1-5c1-1 2-3 3-4l348-484c5-8 12-9 19-4 6 5 6 11 1 18l-344 479z" horiz-adv-x="1000" />

<glyph glyph-name="thin-arrow-right" unicode="&#xe822;" d="M660 350l-344 478c-5 7-5 14 1 19 7 5 13 4 19-4l348-484c1-1 2-3 3-4 1-2 1-3 1-5s0-3-1-5c-1-1-2-3-3-4l-348-484c-5-8-12-9-19-4-6 5-6 11-2 18l345 479z" horiz-adv-x="1000" />

<glyph glyph-name="twitter" unicode="&#xe823;" d="M500 850c-277 0-500-225-500-500 0-277 225-500 500-500 277 0 500 225 500 500 0 275-223 500-500 500z m266-363c-11-13-22-24-36-33-2-1-3-3-3-7 0-23-2-44-6-66-3-24-10-45-20-69-10-23-23-46-39-68-20-27-44-50-71-68-35-26-77-44-120-51-27-5-56-7-83-5-21 2-43 3-62 9-26 7-51 16-74 31-6 1-11 5-16 9 61-6 115 8 165 46-13 0-23 2-34 8-29 10-49 28-63 55-2 4-4 7-6 13-1 3 0 5 4 3 14-1 27-1 41 2l0 0c0 2 0 2-1 2-31 7-54 25-71 54-8 16-14 32-14 50 0 6 2 6 6 4 14-7 28-11 45-11-8 7-17 13-22 20-22 25-31 56-27 90 2 12 5 23 11 36 1 3 3 5 7 0 18-22 39-42 63-58 18-12 36-21 56-31 25-10 50-17 77-23 9-2 18-2 27-3 4 0 5 1 4 5-4 23-2 47 8 68 17 35 42 54 79 63 37 7 69-2 98-23 9-15 21-5 30-4 17 6 33 13 47 20-7-25-23-45-45-59 22 1 40 7 61 16-3-11-9-18-16-25z" horiz-adv-x="1000" />
</font>
</defs>
</svg>
